<svg xmlns="http://www.w3.org/2000/svg" width="27" height="25" fill="none"><path fill="#fff" d="M21.547 23.648h-.113c-.607 0-1.117-.498-1.161-1.134-.045-.667.442-1.248 1.086-1.291a1.193 1.193 0 0 1 1.254 1.111c.012.247-.029.6-.284.892l-.006.007-.005.007a1.155 1.155 0 0 1-.771.408Zm-13.694-.006c-.65 0-1.177-.542-1.177-1.207s.528-1.207 1.177-1.207c.648 0 1.176.541 1.176 1.206 0 .666-.528 1.207-1.176 1.207Z"/><path fill="#fff" d="M21.47 22.65a.147.147 0 0 0 .084-.054l.024-.027c.036-.042.04-.13.038-.175-.013-.105-.103-.178-.18-.178h-.01c-.078.006-.166.11-.16.23.01.117.096.203.168.203h.036Zm-13.618-.007c.099 0 .18-.094.18-.21 0-.115-.081-.209-.18-.209-.1 0-.18.094-.18.21 0 .115.08.21.18.21Zm13.741 2h-.16c-1.134 0-2.076-.908-2.156-2.062-.08-1.201.815-2.273 2.013-2.355.049-.003.097-.005.146-.005 1.135 0 2.094.899 2.171 2.052.032.601-.144 1.17-.527 1.608-.384.455-.911.715-1.487.763Zm-13.741-.005c-1.201 0-2.174-.987-2.174-2.205 0-1.217.973-2.203 2.174-2.203 1.2 0 2.173.986 2.173 2.203 0 1.218-.972 2.205-2.173 2.205Zm12.943-6.847H8.763a.962.962 0 0 1-.927-.715L3.92 2.686H1.173a.97.97 0 0 1-.959-.974.97.97 0 0 1 .959-.975H4.64c.43 0 .814.293.926.716L9.482 15.84h10.674l3.547-8.282H11.879a.97.97 0 0 1-.96-.975.97.97 0 0 1 .96-.974h13.294c.32 0 .623.162.798.439a.997.997 0 0 1 .08.925l-4.378 10.231a.96.96 0 0 1-.878.586Z"/><path fill="#fff" d="M21.47 22.65a.147.147 0 0 0 .084-.054l.024-.027c.036-.042.04-.13.038-.175-.013-.105-.103-.178-.18-.178h-.01c-.078.006-.166.11-.16.23.01.117.096.203.168.203h.036Zm-13.618-.007c.099 0 .18-.094.18-.21 0-.115-.081-.209-.18-.209-.1 0-.18.094-.18.21 0 .115.08.21.18.21Zm13.741 2h-.16c-1.134 0-2.076-.908-2.156-2.062-.08-1.201.815-2.273 2.013-2.355.049-.003.097-.005.146-.005 1.135 0 2.094.899 2.171 2.052.032.601-.144 1.17-.527 1.608-.384.455-.911.715-1.487.763Zm-13.741-.005c-1.201 0-2.174-.987-2.174-2.205 0-1.217.973-2.203 2.174-2.203 1.2 0 2.173.986 2.173 2.203 0 1.218-.972 2.205-2.173 2.205Zm12.943-6.847H8.763a.962.962 0 0 1-.927-.715L3.92 2.686H1.173a.97.97 0 0 1-.959-.974.97.97 0 0 1 .959-.975H4.64c.43 0 .814.293.926.716L9.482 15.84h10.674l3.547-8.282H11.879a.97.97 0 0 1-.96-.975.97.97 0 0 1 .96-.974h13.294c.32 0 .623.162.798.439a.997.997 0 0 1 .08.925l-4.378 10.231a.96.96 0 0 1-.878.586Z"/></svg>